<?xml version="1.0" encoding="UTF-8"?>
<svg xmlns="http://www.w3.org/2000/svg" version="1.1" width="100" height="100" viewBox="0 0 100 100"><rect x="0" y="0" width="100" height="100" fill="#ffffff"/><g transform="scale(4)"><g transform="translate(0,0)"><path fill-rule="evenodd" d="M8 0L8 1L9 1L9 2L8 2L8 5L9 5L9 4L11 4L11 5L10 5L10 10L9 10L9 8L8 8L8 10L6 10L6 9L7 9L7 8L6 8L6 9L4 9L4 8L0 8L0 9L1 9L1 10L0 10L0 11L1 11L1 12L0 12L0 13L1 13L1 15L0 15L0 16L1 16L1 15L2 15L2 17L5 17L5 16L6 16L6 17L7 17L7 16L8 16L8 18L9 18L9 21L8 21L8 25L12 25L12 24L15 24L15 25L16 25L16 24L15 24L15 22L16 22L16 21L17 21L17 25L20 25L20 24L21 24L21 25L25 25L25 24L23 24L23 23L24 23L24 22L25 22L25 21L22 21L22 23L21 23L21 20L22 20L22 19L21 19L21 16L18 16L18 15L20 15L20 14L22 14L22 15L24 15L24 16L25 16L25 15L24 15L24 14L25 14L25 12L24 12L24 11L23 11L23 10L24 10L24 9L25 9L25 8L24 8L24 9L23 9L23 8L20 8L20 9L19 9L19 10L20 10L20 9L21 9L21 12L20 12L20 13L19 13L19 11L18 11L18 8L16 8L16 7L17 7L17 4L15 4L15 3L14 3L14 2L13 2L13 1L14 1L14 0L12 0L12 1L11 1L11 0L10 0L10 1L9 1L9 0ZM16 0L16 3L17 3L17 0ZM11 2L11 4L12 4L12 3L13 3L13 2ZM13 4L13 5L12 5L12 6L11 6L11 8L12 8L12 6L13 6L13 8L14 8L14 11L11 11L11 13L10 13L10 14L11 14L11 13L12 13L12 12L13 12L13 14L12 14L12 16L11 16L11 15L9 15L9 14L8 14L8 13L9 13L9 10L8 10L8 12L7 12L7 11L6 11L6 12L7 12L7 13L6 13L6 14L5 14L5 13L4 13L4 14L5 14L5 15L6 15L6 16L7 16L7 15L6 15L6 14L8 14L8 16L11 16L11 17L10 17L10 18L11 18L11 19L12 19L12 20L10 20L10 21L9 21L9 24L10 24L10 22L11 22L11 23L14 23L14 22L15 22L15 21L16 21L16 20L15 20L15 21L13 21L13 18L14 18L14 15L17 15L17 14L14 14L14 12L15 12L15 13L17 13L17 12L18 12L18 11L16 11L16 8L15 8L15 7L16 7L16 5L15 5L15 7L14 7L14 6L13 6L13 5L14 5L14 4ZM8 6L8 7L9 7L9 6ZM11 9L11 10L12 10L12 9ZM22 9L22 10L23 10L23 9ZM2 10L2 14L3 14L3 11L4 11L4 12L5 12L5 10ZM15 11L15 12L16 12L16 11ZM21 12L21 13L22 13L22 14L23 14L23 13L22 13L22 12ZM13 14L13 15L14 15L14 14ZM12 16L12 17L13 17L13 16ZM22 16L22 17L23 17L23 19L24 19L24 20L25 20L25 18L24 18L24 17L23 17L23 16ZM15 17L15 19L16 19L16 17ZM17 17L17 20L20 20L20 17ZM18 18L18 19L19 19L19 18ZM19 21L19 24L20 24L20 21ZM0 0L0 7L7 7L7 0ZM1 1L1 6L6 6L6 1ZM2 2L2 5L5 5L5 2ZM18 0L18 7L25 7L25 0ZM19 1L19 6L24 6L24 1ZM20 2L20 5L23 5L23 2ZM0 18L0 25L7 25L7 18ZM1 19L1 24L6 24L6 19ZM2 20L2 23L5 23L5 20Z" fill="#000000"/></g></g></svg>
