<?xml version="1.0" encoding="UTF-8"?>
<svg xmlns="http://www.w3.org/2000/svg" version="1.1" width="100" height="100" viewBox="0 0 100 100"><rect x="0" y="0" width="100" height="100" fill="#ffffff"/><g transform="scale(2.703)"><g transform="translate(0,0)"><path fill-rule="evenodd" d="M8 0L8 2L10 2L10 4L8 4L8 9L7 9L7 8L5 8L5 9L3 9L3 8L0 8L0 10L5 10L5 9L7 9L7 10L6 10L6 11L4 11L4 12L5 12L5 13L4 13L4 14L3 14L3 11L0 11L0 12L1 12L1 14L2 14L2 16L5 16L5 17L2 17L2 18L4 18L4 19L1 19L1 20L0 20L0 21L1 21L1 20L4 20L4 21L3 21L3 22L1 22L1 23L0 23L0 24L1 24L1 26L0 26L0 27L4 27L4 28L3 28L3 29L8 29L8 30L10 30L10 33L11 33L11 32L13 32L13 34L15 34L15 35L16 35L16 36L15 36L15 37L17 37L17 34L18 34L18 33L16 33L16 34L15 34L15 32L17 32L17 31L18 31L18 32L19 32L19 31L20 31L20 33L19 33L19 36L20 36L20 37L21 37L21 35L22 35L22 36L24 36L24 37L25 37L25 35L26 35L26 36L27 36L27 34L28 34L28 37L30 37L30 36L31 36L31 35L30 35L30 33L31 33L31 34L32 34L32 35L33 35L33 36L32 36L32 37L33 37L33 36L34 36L34 35L35 35L35 34L36 34L36 35L37 35L37 34L36 34L36 32L35 32L35 33L34 33L34 31L33 31L33 29L34 29L34 30L35 30L35 29L36 29L36 31L37 31L37 29L36 29L36 28L35 28L35 29L34 29L34 27L35 27L35 26L36 26L36 27L37 27L37 24L36 24L36 25L35 25L35 26L34 26L34 27L33 27L33 28L32 28L32 27L31 27L31 26L32 26L32 23L33 23L33 25L34 25L34 23L35 23L35 22L36 22L36 23L37 23L37 20L36 20L36 21L34 21L34 19L33 19L33 22L32 22L32 20L31 20L31 19L32 19L32 18L31 18L31 17L32 17L32 16L33 16L33 18L36 18L36 19L37 19L37 16L35 16L35 17L34 17L34 16L33 16L33 15L32 15L32 12L31 12L31 11L28 11L28 10L29 10L29 9L30 9L30 10L32 10L32 9L33 9L33 8L29 8L29 9L28 9L28 8L27 8L27 6L26 6L26 5L27 5L27 3L26 3L26 2L27 2L27 0L26 0L26 2L25 2L25 0L24 0L24 2L23 2L23 0L22 0L22 2L21 2L21 5L20 5L20 8L18 8L18 9L17 9L17 6L16 6L16 9L15 9L15 6L14 6L14 8L13 8L13 6L12 6L12 4L11 4L11 3L13 3L13 5L14 5L14 2L15 2L15 3L16 3L16 2L17 2L17 4L18 4L18 2L19 2L19 4L20 4L20 2L19 2L19 0L18 0L18 2L17 2L17 0L16 0L16 2L15 2L15 1L14 1L14 2L13 2L13 0L11 0L11 1L9 1L9 0ZM20 0L20 1L21 1L21 0ZM28 0L28 1L29 1L29 0ZM11 1L11 2L12 2L12 1ZM22 2L22 3L23 3L23 4L22 4L22 5L21 5L21 12L20 12L20 13L21 13L21 14L20 14L20 15L19 15L19 14L16 14L16 15L15 15L15 17L16 17L16 16L17 16L17 18L18 18L18 19L17 19L17 20L16 20L16 19L15 19L15 18L13 18L13 16L14 16L14 15L13 15L13 16L11 16L11 15L12 15L12 13L11 13L11 12L13 12L13 11L14 11L14 13L13 13L13 14L15 14L15 9L14 9L14 10L13 10L13 8L11 8L11 10L10 10L10 9L8 9L8 10L7 10L7 11L6 11L6 12L7 12L7 13L5 13L5 14L4 14L4 15L6 15L6 16L7 16L7 17L6 17L6 18L5 18L5 19L4 19L4 20L7 20L7 21L4 21L4 22L5 22L5 23L6 23L6 24L5 24L5 25L6 25L6 26L7 26L7 27L5 27L5 26L4 26L4 25L3 25L3 24L4 24L4 23L3 23L3 24L2 24L2 23L1 23L1 24L2 24L2 26L4 26L4 27L5 27L5 28L8 28L8 29L9 29L9 28L10 28L10 29L11 29L11 31L12 31L12 29L11 29L11 28L13 28L13 27L14 27L14 29L13 29L13 30L15 30L15 28L17 28L17 30L16 30L16 31L17 31L17 30L19 30L19 29L20 29L20 27L17 27L17 26L18 26L18 25L19 25L19 24L21 24L21 26L22 26L22 27L21 27L21 29L22 29L22 31L21 31L21 30L20 30L20 31L21 31L21 33L20 33L20 34L21 34L21 33L22 33L22 34L23 34L23 32L22 32L22 31L23 31L23 29L24 29L24 31L25 31L25 33L26 33L26 34L27 34L27 32L26 32L26 29L27 29L27 28L26 28L26 27L27 27L27 26L26 26L26 25L27 25L27 24L29 24L29 27L28 27L28 28L29 28L29 27L30 27L30 28L31 28L31 27L30 27L30 24L29 24L29 23L30 23L30 20L28 20L28 19L27 19L27 16L28 16L28 15L30 15L30 16L31 16L31 14L30 14L30 12L29 12L29 13L28 13L28 11L27 11L27 8L26 8L26 6L25 6L25 2L24 2L24 3L23 3L23 2ZM28 2L28 4L29 4L29 2ZM9 5L9 8L10 8L10 6L11 6L11 7L12 7L12 6L11 6L11 5ZM28 5L28 7L29 7L29 5ZM18 6L18 7L19 7L19 6ZM22 6L22 8L23 8L23 6ZM24 6L24 9L22 9L22 11L25 11L25 10L26 10L26 9L25 9L25 6ZM35 8L35 9L34 9L34 10L33 10L33 11L34 11L34 10L35 10L35 13L34 13L34 12L33 12L33 14L36 14L36 15L37 15L37 8ZM18 9L18 10L16 10L16 12L17 12L17 13L18 13L18 11L19 11L19 9ZM8 10L8 12L11 12L11 11L12 11L12 10L11 10L11 11L9 11L9 10ZM26 11L26 12L27 12L27 11ZM23 12L23 14L22 14L22 16L23 16L23 15L24 15L24 17L23 17L23 19L22 19L22 20L23 20L23 19L24 19L24 18L25 18L25 19L26 19L26 21L25 21L25 20L24 20L24 21L23 21L23 27L22 27L22 29L23 29L23 27L24 27L24 29L25 29L25 27L26 27L26 26L25 26L25 25L24 25L24 22L25 22L25 23L26 23L26 24L27 24L27 23L28 23L28 22L29 22L29 21L28 21L28 20L27 20L27 19L26 19L26 18L25 18L25 15L26 15L26 14L25 14L25 13L24 13L24 12ZM8 13L8 14L6 14L6 15L8 15L8 14L10 14L10 13ZM27 13L27 15L28 15L28 13ZM24 14L24 15L25 15L25 14ZM18 15L18 16L19 16L19 19L18 19L18 20L19 20L19 21L16 21L16 20L15 20L15 22L13 22L13 21L14 21L14 19L13 19L13 20L9 20L9 19L12 19L12 18L10 18L10 17L11 17L11 16L9 16L9 17L8 17L8 19L7 19L7 18L6 18L6 19L7 19L7 20L8 20L8 23L7 23L7 22L6 22L6 23L7 23L7 24L6 24L6 25L8 25L8 28L9 28L9 27L10 27L10 26L11 26L11 27L12 27L12 26L11 26L11 25L8 25L8 23L9 23L9 24L13 24L13 26L15 26L15 27L16 27L16 26L17 26L17 25L16 25L16 23L20 23L20 22L21 22L21 23L22 23L22 22L21 22L21 21L20 21L20 19L21 19L21 18L22 18L22 17L21 17L21 16L19 16L19 15ZM29 17L29 19L31 19L31 18L30 18L30 17ZM9 21L9 22L11 22L11 23L12 23L12 21ZM26 21L26 23L27 23L27 21ZM31 22L31 23L32 23L32 22ZM33 22L33 23L34 23L34 22ZM13 23L13 24L14 24L14 23ZM24 26L24 27L25 27L25 26ZM0 28L0 29L2 29L2 28ZM29 29L29 32L32 32L32 29ZM27 30L27 31L28 31L28 30ZM30 30L30 31L31 31L31 30ZM8 31L8 32L9 32L9 31ZM13 31L13 32L14 32L14 31ZM28 33L28 34L29 34L29 33ZM33 33L33 35L34 35L34 33ZM8 34L8 37L9 37L9 36L11 36L11 37L14 37L14 35L13 35L13 36L11 36L11 35L12 35L12 34ZM36 36L36 37L37 37L37 36ZM0 0L0 7L7 7L7 0ZM1 1L1 6L6 6L6 1ZM2 2L2 5L5 5L5 2ZM30 0L30 7L37 7L37 0ZM31 1L31 6L36 6L36 1ZM32 2L32 5L35 5L35 2ZM0 30L0 37L7 37L7 30ZM1 31L1 36L6 36L6 31ZM2 32L2 35L5 35L5 32Z" fill="#000000"/></g></g></svg>
