<?xml version="1.0" encoding="UTF-8"?>
<svg xmlns="http://www.w3.org/2000/svg" version="1.1" width="100" height="100" viewBox="0 0 100 100"><rect x="0" y="0" width="100" height="100" fill="#ffffff"/><g transform="scale(3.448)"><g transform="translate(0,0)"><path fill-rule="evenodd" d="M9 0L9 1L8 1L8 2L9 2L9 3L8 3L8 4L10 4L10 7L11 7L11 4L12 4L12 5L13 5L13 6L12 6L12 9L13 9L13 8L14 8L14 9L15 9L15 10L20 10L20 11L18 11L18 12L17 12L17 11L16 11L16 12L17 12L17 13L18 13L18 14L23 14L23 15L24 15L24 16L25 16L25 17L22 17L22 16L21 16L21 15L18 15L18 16L17 16L17 14L16 14L16 13L12 13L12 11L13 11L13 10L11 10L11 11L10 11L10 9L11 9L11 8L6 8L6 9L5 9L5 8L0 8L0 9L1 9L1 10L2 10L2 11L3 11L3 10L4 10L4 9L5 9L5 11L8 11L8 10L9 10L9 13L8 13L8 12L6 12L6 13L5 13L5 14L6 14L6 15L7 15L7 14L6 14L6 13L8 13L8 17L9 17L9 18L8 18L8 20L10 20L10 16L9 16L9 13L10 13L10 14L11 14L11 13L12 13L12 14L13 14L13 15L12 15L12 17L13 17L13 16L14 16L14 17L15 17L15 16L14 16L14 15L16 15L16 16L17 16L17 17L18 17L18 18L20 18L20 19L21 19L21 20L19 20L19 21L20 21L20 22L19 22L19 23L18 23L18 22L17 22L17 21L18 21L18 20L17 20L17 18L15 18L15 19L14 19L14 20L17 20L17 21L16 21L16 22L15 22L15 21L12 21L12 19L13 19L13 18L11 18L11 21L10 21L10 23L11 23L11 21L12 21L12 22L13 22L13 23L12 23L12 25L13 25L13 24L14 24L14 25L15 25L15 24L14 24L14 23L16 23L16 24L17 24L17 25L16 25L16 26L15 26L15 27L14 27L14 28L15 28L15 29L16 29L16 28L15 28L15 27L18 27L18 28L17 28L17 29L18 29L18 28L19 28L19 29L20 29L20 28L21 28L21 29L22 29L22 27L23 27L23 28L24 28L24 29L27 29L27 28L28 28L28 26L29 26L29 25L28 25L28 24L26 24L26 25L25 25L25 23L27 23L27 22L29 22L29 20L28 20L28 19L27 19L27 16L28 16L28 15L27 15L27 14L25 14L25 13L27 13L27 12L28 12L28 11L27 11L27 12L26 12L26 11L25 11L25 13L18 13L18 12L20 12L20 11L21 11L21 12L22 12L22 11L21 11L21 10L23 10L23 12L24 12L24 10L25 10L25 9L26 9L26 8L25 8L25 9L24 9L24 8L23 8L23 9L22 9L22 8L21 8L21 0L15 0L15 1L18 1L18 2L19 2L19 3L20 3L20 4L18 4L18 3L17 3L17 2L16 2L16 4L12 4L12 2L13 2L13 1L11 1L11 2L10 2L10 0ZM19 1L19 2L20 2L20 1ZM14 2L14 3L15 3L15 2ZM10 3L10 4L11 4L11 3ZM16 4L16 5L17 5L17 7L16 7L16 6L15 6L15 7L14 7L14 6L13 6L13 7L14 7L14 8L15 8L15 7L16 7L16 9L17 9L17 8L18 8L18 9L21 9L21 8L20 8L20 5L17 5L17 4ZM8 5L8 7L9 7L9 5ZM18 6L18 8L19 8L19 6ZM27 8L27 9L28 9L28 10L29 10L29 9L28 9L28 8ZM2 9L2 10L3 10L3 9ZM6 9L6 10L8 10L8 9ZM14 11L14 12L15 12L15 11ZM10 12L10 13L11 13L11 12ZM0 13L0 15L2 15L2 16L1 16L1 17L0 17L0 21L1 21L1 18L2 18L2 19L3 19L3 20L2 20L2 21L5 21L5 20L4 20L4 19L7 19L7 18L6 18L6 17L7 17L7 16L6 16L6 17L5 17L5 18L4 18L4 19L3 19L3 17L4 17L4 16L5 16L5 15L4 15L4 14L2 14L2 13ZM28 13L28 14L29 14L29 13ZM24 14L24 15L25 15L25 16L27 16L27 15L25 15L25 14ZM3 15L3 16L2 16L2 17L3 17L3 16L4 16L4 15ZM18 16L18 17L19 17L19 16ZM20 16L20 17L21 17L21 16ZM25 17L25 18L23 18L23 20L24 20L24 19L25 19L25 21L26 21L26 20L27 20L27 19L26 19L26 17ZM28 17L28 18L29 18L29 17ZM21 18L21 19L22 19L22 18ZM6 20L6 21L7 21L7 20ZM8 21L8 23L9 23L9 21ZM21 21L21 24L24 24L24 21ZM22 22L22 23L23 23L23 22ZM17 23L17 24L18 24L18 23ZM8 24L8 29L9 29L9 27L11 27L11 28L10 28L10 29L12 29L12 27L13 27L13 26L10 26L10 25L11 25L11 24ZM19 24L19 26L18 26L18 27L22 27L22 26L23 26L23 25L21 25L21 26L20 26L20 24ZM24 25L24 26L25 26L25 25ZM26 27L26 28L27 28L27 27ZM0 0L0 7L7 7L7 0ZM1 1L1 6L6 6L6 1ZM2 2L2 5L5 5L5 2ZM22 0L22 7L29 7L29 0ZM23 1L23 6L28 6L28 1ZM24 2L24 5L27 5L27 2ZM0 22L0 29L7 29L7 22ZM1 23L1 28L6 28L6 23ZM2 24L2 27L5 27L5 24Z" fill="#000000"/></g></g></svg>
